<svg width="28" height="26" viewBox="0 0 28 26" fill="none" xmlns="http://www.w3.org/2000/svg">
<path id="Vector" d="M13.875 10.125C9.91625 10.125 6.57125 13.5819 5.49125 18.0219C5.01625 19.9744 5.7325 22.0469 7.49062 23.0206C8.88437 23.7925 10.9575 24.5 13.875 24.5C16.7925 24.5 18.8662 23.7925 20.26 23.0206C22.0181 22.0469 22.7338 19.9744 22.2588 18.0219C21.1788 13.5812 17.8338 10.125 13.875 10.125ZM0.75 9.1525C0.75 10.8788 1.86875 12.625 3.25 12.625C4.63125 12.625 5.75 10.8788 5.75 9.1525C5.75 7.42625 4.63125 6.375 3.25 6.375C1.86875 6.375 0.75 7.42688 0.75 9.1525ZM27 9.1525C27 10.8788 25.8813 12.625 24.5 12.625C23.1187 12.625 22 10.8788 22 9.1525C22 7.42625 23.1187 6.375 24.5 6.375C25.8813 6.375 27 7.42688 27 9.1525ZM7.3125 3.5275C7.3125 5.25375 8.43125 7 9.8125 7C11.1938 7 12.3125 5.25375 12.3125 3.5275C12.3125 1.80125 11.1938 0.75 9.8125 0.75C8.43125 0.75 7.3125 1.80188 7.3125 3.5275ZM20.4375 3.5275C20.4375 5.25375 19.3188 7 17.9375 7C16.5562 7 15.4375 5.25375 15.4375 3.5275C15.4375 1.80125 16.5562 0.75 17.9375 0.75C19.3188 0.75 20.4375 1.80188 20.4375 3.5275Z" stroke="black" stroke-width="1.5" stroke-linecap="round" stroke-linejoin="round"/>
</svg>
