<svg width="29" height="26" viewBox="0 0 29 26" fill="none" xmlns="http://www.w3.org/2000/svg">
<path d="M14.125 10.375C10.1662 10.375 6.82125 13.8319 5.74125 18.2719C5.26625 20.2244 5.9825 22.2969 7.74062 23.2706C9.13437 24.0425 11.2075 24.75 14.125 24.75C17.0425 24.75 19.1162 24.0425 20.51 23.2706C22.2681 22.2969 22.9838 20.2244 22.5088 18.2719C21.4288 13.8312 18.0838 10.375 14.125 10.375ZM1 9.4025C1 11.1288 2.11875 12.875 3.5 12.875C4.88125 12.875 6 11.1288 6 9.4025C6 7.67625 4.88125 6.625 3.5 6.625C2.11875 6.625 1 7.67688 1 9.4025ZM27.25 9.4025C27.25 11.1288 26.1313 12.875 24.75 12.875C23.3687 12.875 22.25 11.1288 22.25 9.4025C22.25 7.67625 23.3687 6.625 24.75 6.625C26.1313 6.625 27.25 7.67688 27.25 9.4025ZM7.5625 3.7775C7.5625 5.50375 8.68125 7.25 10.0625 7.25C11.4438 7.25 12.5625 5.50375 12.5625 3.7775C12.5625 2.05125 11.4438 1 10.0625 1C8.68125 1 7.5625 2.05188 7.5625 3.7775ZM20.6875 3.7775C20.6875 5.50375 19.5688 7.25 18.1875 7.25C16.8062 7.25 15.6875 5.50375 15.6875 3.7775C15.6875 2.05125 16.8062 1 18.1875 1C19.5688 1 20.6875 2.05188 20.6875 3.7775Z" stroke="url(#paint0_linear_674_2199)" stroke-width="2" stroke-linecap="round" stroke-linejoin="round"/>
<defs>
<linearGradient id="paint0_linear_674_2199" x1="1.88594" y1="101.038" x2="78.9767" y2="77.3947" gradientUnits="userSpaceOnUse">
<stop stop-color="#F840D0"/>
<stop offset="0.453548" stop-color="#53DDFF"/>
<stop offset="1" stop-color="#53FA9C"/>
</linearGradient>
</defs>
</svg>
