<svg width="23" height="25" viewBox="0 0 23 25" fill="none" xmlns="http://www.w3.org/2000/svg">
<path id="Vector" d="M8.55 19.3375L10.9375 16.95L13.325 19.3375C13.6875 19.7 14.2875 19.7 14.65 19.3375C15.0125 18.975 15.0125 18.375 14.65 18.0125L12.2625 15.625L14.65 13.2375C15.0125 12.875 15.0125 12.275 14.65 11.9125C14.4736 11.7381 14.2355 11.6404 13.9875 11.6404C13.7395 11.6404 13.5014 11.7381 13.325 11.9125L10.9375 14.3L8.55 11.9125C8.37358 11.7381 8.13554 11.6404 7.8875 11.6404C7.63946 11.6404 7.40142 11.7381 7.225 11.9125C6.8625 12.275 6.8625 12.875 7.225 13.2375L9.6125 15.625L7.225 18.0125C6.8625 18.375 6.8625 18.975 7.225 19.3375C7.5875 19.7 8.1875 19.7 8.55 19.3375ZM20 2.5H18.75V1.25C18.75 0.5625 18.1875 0 17.5 0C16.8125 0 16.25 0.5625 16.25 1.25V2.5H6.25V1.25C6.25 0.5625 5.6875 0 5 0C4.3125 0 3.75 0.5625 3.75 1.25V2.5H2.5C1.1125 2.5 0.0125 3.625 0.0125 5L0 22.5C0 23.163 0.263392 23.7989 0.732233 24.2678C1.20107 24.7366 1.83696 25 2.5 25H20C21.375 25 22.5 23.875 22.5 22.5V5C22.5 3.625 21.375 2.5 20 2.5ZM18.75 22.5H3.75C3.0625 22.5 2.5 21.9375 2.5 21.25V8.75H20V21.25C20 21.9375 19.4375 22.5 18.75 22.5Z" fill="black"/>
</svg>
