<svg width="26" height="26" viewBox="0 0 26 26" fill="none" xmlns="http://www.w3.org/2000/svg">
<path d="M21.71 14.4375H16.8663C16.2242 14.4368 15.6081 14.6908 15.153 15.1438C14.6979 15.5967 14.4411 16.2117 14.4388 16.8538V21.6975C14.4384 22.0164 14.501 22.3322 14.6229 22.6269C14.7447 22.9215 14.9235 23.1893 15.149 23.4147C15.3745 23.6402 15.6422 23.819 15.9369 23.9409C16.2316 24.0628 16.5474 24.1253 16.8663 24.125H21.71C22.3519 24.1224 22.9665 23.8654 23.4192 23.4103C23.8718 22.9553 24.1257 22.3394 24.125 21.6975V16.8538C24.1253 16.5365 24.0631 16.2223 23.9418 15.9292C23.8206 15.636 23.6427 15.3697 23.4184 15.1454C23.1941 14.921 22.9277 14.7432 22.6346 14.6219C22.3414 14.5007 22.0272 14.4384 21.71 14.4388M8.25875 14.4375H3.415C2.77324 14.4411 2.15901 14.6986 1.7065 15.1537C1.25399 15.6088 0.999991 16.2245 1 16.8663V21.71C0.999672 22.0272 1.06191 22.3414 1.18316 22.6346C1.30441 22.9277 1.48229 23.1941 1.7066 23.4184C1.93092 23.6427 2.19728 23.8206 2.49043 23.9418C2.78358 24.0631 3.09777 24.1253 3.415 24.125H8.25875C8.90061 24.1257 9.51654 23.8718 9.97157 23.4192C10.4266 22.9665 10.6836 22.3519 10.6863 21.71V16.8663C10.6866 16.5474 10.624 16.2316 10.5021 15.9369C10.3803 15.6422 10.2015 15.3745 9.97599 15.149C9.75051 14.9235 9.48277 14.7447 9.1881 14.6229C8.89344 14.501 8.57763 14.4384 8.25875 14.4388M8.25875 1H3.415C3.09777 0.999672 2.78358 1.06191 2.49043 1.18316C2.19728 1.30441 1.93092 1.48229 1.7066 1.7066C1.48229 1.93092 1.30441 2.19728 1.18316 2.49043C1.06191 2.78358 0.999672 3.09777 1 3.415V8.25875C0.999334 8.90061 1.25316 9.51654 1.70585 9.97157C2.15853 10.4266 2.77315 10.6836 3.415 10.6863H8.25875C8.57763 10.6866 8.89344 10.624 9.1881 10.5021C9.48277 10.3803 9.75051 10.2015 9.97599 9.97599C10.2015 9.75051 10.3803 9.48277 10.5021 9.1881C10.624 8.89344 10.6866 8.57763 10.6863 8.25875V3.415C10.6836 2.77315 10.4266 2.15853 9.97157 1.70585C9.51654 1.25316 8.90061 0.999334 8.25875 1ZM21.71 1H16.8663C16.2244 0.999334 15.6085 1.25316 15.1534 1.70585C14.6984 2.15853 14.4414 2.77315 14.4388 3.415V8.25875C14.4391 8.90246 14.6949 9.51971 15.1501 9.97489C15.6053 10.4301 16.2225 10.6859 16.8663 10.6863H21.71C22.3519 10.6836 22.9665 10.4266 23.4192 9.97157C23.8718 9.51654 24.1257 8.90061 24.125 8.25875V3.415C24.1253 3.09777 24.0631 2.78358 23.9418 2.49043C23.8206 2.19728 23.6427 1.93092 23.4184 1.7066C23.1941 1.48229 22.9277 1.30441 22.6346 1.18316C22.3414 1.06191 22.0272 0.999672 21.71 1Z" stroke="url(#paint0_linear_674_2155)" stroke-width="2" stroke-linecap="round" stroke-linejoin="round"/>
<defs>
<linearGradient id="paint0_linear_674_2155" x1="1.78047" y1="98.4053" x2="70.7697" y2="79.2619" gradientUnits="userSpaceOnUse">
<stop stop-color="#F840D0"/>
<stop offset="0.453548" stop-color="#53DDFF"/>
<stop offset="1" stop-color="#53FA9C"/>
</linearGradient>
</defs>
</svg>
