<svg width="25" height="25" viewBox="0 0 25 25" fill="none" xmlns="http://www.w3.org/2000/svg">
<g id="Vector">
<path d="M21.46 14.1875H16.6163C15.9742 14.1868 15.3581 14.4408 14.903 14.8938C14.4479 15.3467 14.1911 15.9617 14.1888 16.6038V21.4475C14.1884 21.7664 14.251 22.0822 14.3729 22.3769C14.4947 22.6715 14.6735 22.9393 14.899 23.1647C15.1245 23.3902 15.3922 23.569 15.6869 23.6909C15.9816 23.8128 16.2974 23.8753 16.6163 23.875H21.46C22.1019 23.8724 22.7165 23.6154 23.1692 23.1603C23.6218 22.7053 23.8757 22.0894 23.875 21.4475V16.6038C23.8753 16.2865 23.8131 15.9723 23.6918 15.6792C23.5706 15.386 23.3927 15.1197 23.1684 14.8954C22.9441 14.671 22.6777 14.4932 22.3846 14.3719C22.0914 14.2507 21.7772 14.1884 21.46 14.1888M8.00875 14.1875H3.165C2.52324 14.1911 1.90901 14.4486 1.4565 14.9037C1.00399 15.3588 0.749991 15.9745 0.750001 16.6163V21.46C0.749672 21.7772 0.811914 22.0914 0.933162 22.3846C1.05441 22.6777 1.23229 22.9441 1.4566 23.1684C1.68092 23.3927 1.94728 23.5706 2.24043 23.6918C2.53358 23.8131 2.84777 23.8753 3.165 23.875H8.00875C8.65061 23.8757 9.26654 23.6218 9.72157 23.1692C10.1766 22.7165 10.4336 22.1019 10.4363 21.46V16.6163C10.4366 16.2974 10.374 15.9816 10.2521 15.6869C10.1303 15.3922 9.95147 15.1245 9.72599 14.899C9.50051 14.6735 9.23277 14.4947 8.9381 14.3729C8.64344 14.251 8.32763 14.1884 8.00875 14.1888M8.00875 0.750001H3.165C2.84777 0.749672 2.53358 0.811914 2.24043 0.933162C1.94728 1.05441 1.68092 1.23229 1.4566 1.4566C1.23229 1.68092 1.05441 1.94728 0.933162 2.24043C0.811914 2.53358 0.749672 2.84777 0.750001 3.165V8.00875C0.749334 8.65061 1.00316 9.26654 1.45585 9.72157C1.90853 10.1766 2.52315 10.4336 3.165 10.4363H8.00875C8.32763 10.4366 8.64344 10.374 8.9381 10.2521C9.23277 10.1303 9.50051 9.95147 9.72599 9.72599C9.95147 9.50051 10.1303 9.23277 10.2521 8.9381C10.374 8.64344 10.4366 8.32763 10.4363 8.00875V3.165C10.4336 2.52315 10.1766 1.90853 9.72157 1.45585C9.26654 1.00316 8.65061 0.749334 8.00875 0.750001ZM21.46 0.750001H16.6163C15.9744 0.749334 15.3585 1.00316 14.9034 1.45585C14.4484 1.90853 14.1914 2.52315 14.1888 3.165V8.00875C14.1891 8.65246 14.4449 9.26971 14.9001 9.72489C15.3553 10.1801 15.9725 10.4359 16.6163 10.4363H21.46C22.1019 10.4336 22.7165 10.1766 23.1692 9.72157C23.6218 9.26654 23.8757 8.65061 23.875 8.00875V3.165C23.8753 2.84777 23.8131 2.53358 23.6918 2.24043C23.5706 1.94728 23.3927 1.68092 23.1684 1.4566C22.9441 1.23229 22.6777 1.05441 22.3846 0.933162C22.0914 0.811914 21.7772 0.749672 21.46 0.750001Z" stroke="white" stroke-width="1.5" stroke-linecap="round" stroke-linejoin="round"/>
<path d="M21.46 14.1875H16.6163C15.9742 14.1868 15.3581 14.4408 14.903 14.8938C14.4479 15.3467 14.1911 15.9617 14.1888 16.6038V21.4475C14.1884 21.7664 14.251 22.0822 14.3729 22.3769C14.4947 22.6715 14.6735 22.9393 14.899 23.1647C15.1245 23.3902 15.3922 23.569 15.6869 23.6909C15.9816 23.8128 16.2974 23.8753 16.6163 23.875H21.46C22.1019 23.8724 22.7165 23.6154 23.1692 23.1603C23.6218 22.7053 23.8757 22.0894 23.875 21.4475V16.6038C23.8753 16.2865 23.8131 15.9723 23.6918 15.6792C23.5706 15.386 23.3927 15.1197 23.1684 14.8954C22.9441 14.671 22.6777 14.4932 22.3846 14.3719C22.0914 14.2507 21.7772 14.1884 21.46 14.1888M8.00875 14.1875H3.165C2.52324 14.1911 1.90901 14.4486 1.4565 14.9037C1.00399 15.3588 0.749991 15.9745 0.750001 16.6163V21.46C0.749672 21.7772 0.811914 22.0914 0.933162 22.3846C1.05441 22.6777 1.23229 22.9441 1.4566 23.1684C1.68092 23.3927 1.94728 23.5706 2.24043 23.6918C2.53358 23.8131 2.84777 23.8753 3.165 23.875H8.00875C8.65061 23.8757 9.26654 23.6218 9.72157 23.1692C10.1766 22.7165 10.4336 22.1019 10.4363 21.46V16.6163C10.4366 16.2974 10.374 15.9816 10.2521 15.6869C10.1303 15.3922 9.95147 15.1245 9.72599 14.899C9.50051 14.6735 9.23277 14.4947 8.9381 14.3729C8.64344 14.251 8.32763 14.1884 8.00875 14.1888M8.00875 0.750001H3.165C2.84777 0.749672 2.53358 0.811914 2.24043 0.933162C1.94728 1.05441 1.68092 1.23229 1.4566 1.4566C1.23229 1.68092 1.05441 1.94728 0.933162 2.24043C0.811914 2.53358 0.749672 2.84777 0.750001 3.165V8.00875C0.749334 8.65061 1.00316 9.26654 1.45585 9.72157C1.90853 10.1766 2.52315 10.4336 3.165 10.4363H8.00875C8.32763 10.4366 8.64344 10.374 8.9381 10.2521C9.23277 10.1303 9.50051 9.95147 9.72599 9.72599C9.95147 9.50051 10.1303 9.23277 10.2521 8.9381C10.374 8.64344 10.4366 8.32763 10.4363 8.00875V3.165C10.4336 2.52315 10.1766 1.90853 9.72157 1.45585C9.26654 1.00316 8.65061 0.749334 8.00875 0.750001ZM21.46 0.750001H16.6163C15.9744 0.749334 15.3585 1.00316 14.9034 1.45585C14.4484 1.90853 14.1914 2.52315 14.1888 3.165V8.00875C14.1891 8.65246 14.4449 9.26971 14.9001 9.72489C15.3553 10.1801 15.9725 10.4359 16.6163 10.4363H21.46C22.1019 10.4336 22.7165 10.1766 23.1692 9.72157C23.6218 9.26654 23.8757 8.65061 23.875 8.00875V3.165C23.8753 2.84777 23.8131 2.53358 23.6918 2.24043C23.5706 1.94728 23.3927 1.68092 23.1684 1.4566C22.9441 1.23229 22.6777 1.05441 22.3846 0.933162C22.0914 0.811914 21.7772 0.749672 21.46 0.750001Z" stroke="#010002" stroke-width="1.5" stroke-linecap="round" stroke-linejoin="round"/>
</g>
</svg>
