<svg width="29" height="26" viewBox="0 0 29 26" fill="none" xmlns="http://www.w3.org/2000/svg">
<path id="Vector" d="M10 0C10.8562 0 11.6419 0.32 12.2137 0.91125C12.7856 1.50313 13.125 2.34812 13.125 3.3675C13.125 4.38187 12.79 5.4 12.2437 6.17063C11.7 6.9375 10.9125 7.5 10 7.5C9.0875 7.5 8.3 6.9375 7.75625 6.17063C7.21 5.4 6.875 4.38188 6.875 3.36812C6.875 2.34812 7.21437 1.50313 7.78687 0.91125C8.35812 0.32 9.14375 0 10 0ZM3.125 5.625C3.98125 5.625 4.76687 5.945 5.33875 6.53625C5.91062 7.12813 6.25 7.97313 6.25 8.9925C6.25 10.0069 5.915 11.025 5.36875 11.7956C4.825 12.5625 4.0375 13.125 3.125 13.125C2.2125 13.125 1.425 12.5625 0.88125 11.7956C0.335 11.025 0 10.0063 0 8.99312C0 7.97312 0.339375 7.12813 0.911875 6.53625C1.48313 5.945 2.26875 5.625 3.125 5.625ZM14.0625 10C9.61 10 5.92125 13.7906 4.76 18.5437C4.245 20.6525 5.03063 22.9144 6.96813 23.9862C8.5075 24.8387 10.8113 25.625 14.0619 25.625C17.3131 25.625 19.6169 24.8387 21.1569 23.9862C23.0938 22.9144 23.8794 20.6525 23.3644 18.5444C22.2037 13.7906 18.5144 10 14.0625 10ZM25 5.625C24.1437 5.625 23.3581 5.945 22.7869 6.53625C22.2144 7.12813 21.875 7.97313 21.875 8.9925C21.875 10.0069 22.21 11.025 22.7563 11.7956C23.3 12.5625 24.0875 13.125 25 13.125C25.9125 13.125 26.7 12.5625 27.2437 11.7956C27.79 11.025 28.125 10.0069 28.125 8.99312C28.125 7.97312 27.7856 7.12813 27.2137 6.53625C26.6419 5.945 25.8563 5.625 25 5.625ZM18.125 0C17.2687 0 16.4831 0.32 15.9119 0.91125C15.3394 1.50313 15 2.34812 15 3.3675C15 4.38187 15.335 5.4 15.8813 6.17063C16.425 6.9375 17.2125 7.5 18.125 7.5C19.0375 7.5 19.825 6.9375 20.3687 6.17063C20.915 5.4 21.25 4.38188 21.25 3.36812C21.25 2.34812 20.9106 1.50313 20.3387 0.91125C19.7669 0.32 18.9813 0 18.125 0Z" fill="black"/>
</svg>
