<svg width="25" height="25" viewBox="0 0 25 25" fill="none" xmlns="http://www.w3.org/2000/svg">
<path d="M12.5 15C12.7472 15 12.9889 14.9267 13.1945 14.7893C13.4 14.652 13.5602 14.4568 13.6549 14.2284C13.7495 13.9999 13.7742 13.7486 13.726 13.5061C13.6778 13.2637 13.5587 13.0409 13.3839 12.8661C13.2091 12.6913 12.9863 12.5722 12.7439 12.524C12.5014 12.4758 12.2501 12.5005 12.0216 12.5951C11.7932 12.6898 11.598 12.85 11.4607 13.0555C11.3233 13.2611 11.25 13.5028 11.25 13.75C11.25 14.0815 11.3817 14.3995 11.6161 14.6339C11.8505 14.8683 12.1685 15 12.5 15ZM18.75 15C18.9972 15 19.2389 14.9267 19.4445 14.7893C19.65 14.652 19.8102 14.4568 19.9049 14.2284C19.9995 13.9999 20.0242 13.7486 19.976 13.5061C19.9278 13.2637 19.8087 13.0409 19.6339 12.8661C19.4591 12.6913 19.2363 12.5722 18.9939 12.524C18.7514 12.4758 18.5001 12.5005 18.2716 12.5951C18.0432 12.6898 17.848 12.85 17.7107 13.0555C17.5733 13.2611 17.5 13.5028 17.5 13.75C17.5 14.0815 17.6317 14.3995 17.8661 14.6339C18.1005 14.8683 18.4185 15 18.75 15ZM12.5 20C12.7472 20 12.9889 19.9267 13.1945 19.7893C13.4 19.652 13.5602 19.4568 13.6549 19.2284C13.7495 18.9999 13.7742 18.7486 13.726 18.5061C13.6778 18.2637 13.5587 18.0409 13.3839 17.8661C13.2091 17.6913 12.9863 17.5722 12.7439 17.524C12.5014 17.4758 12.2501 17.5005 12.0216 17.5951C11.7932 17.6898 11.598 17.85 11.4607 18.0555C11.3233 18.2611 11.25 18.5028 11.25 18.75C11.25 19.0815 11.3817 19.3995 11.6161 19.6339C11.8505 19.8683 12.1685 20 12.5 20ZM18.75 20C18.9972 20 19.2389 19.9267 19.4445 19.7893C19.65 19.652 19.8102 19.4568 19.9049 19.2284C19.9995 18.9999 20.0242 18.7486 19.976 18.5061C19.9278 18.2637 19.8087 18.0409 19.6339 17.8661C19.4591 17.6913 19.2363 17.5722 18.9939 17.524C18.7514 17.4758 18.5001 17.5005 18.2716 17.5951C18.0432 17.6898 17.848 17.85 17.7107 18.0555C17.5733 18.2611 17.5 18.5028 17.5 18.75C17.5 19.0815 17.6317 19.3995 17.8661 19.6339C18.1005 19.8683 18.4185 20 18.75 20ZM6.25 15C6.49723 15 6.7389 14.9267 6.94446 14.7893C7.15002 14.652 7.31024 14.4568 7.40485 14.2284C7.49946 13.9999 7.52421 13.7486 7.47598 13.5061C7.42775 13.2637 7.3087 13.0409 7.13388 12.8661C6.95907 12.6913 6.73634 12.5722 6.49386 12.524C6.25139 12.4758 6.00005 12.5005 5.77165 12.5951C5.54324 12.6898 5.34801 12.85 5.21066 13.0555C5.07331 13.2611 5 13.5028 5 13.75C5 14.0815 5.1317 14.3995 5.36612 14.6339C5.60054 14.8683 5.91848 15 6.25 15ZM21.25 2.5H20V1.25C20 0.918479 19.8683 0.600537 19.6339 0.366116C19.3995 0.131696 19.0815 0 18.75 0C18.4185 0 18.1005 0.131696 17.8661 0.366116C17.6317 0.600537 17.5 0.918479 17.5 1.25V2.5H7.5V1.25C7.5 0.918479 7.3683 0.600537 7.13388 0.366116C6.89946 0.131696 6.58152 0 6.25 0C5.91848 0 5.60054 0.131696 5.36612 0.366116C5.1317 0.600537 5 0.918479 5 1.25V2.5H3.75C2.75544 2.5 1.80161 2.89509 1.09835 3.59835C0.395088 4.30161 0 5.25544 0 6.25V21.25C0 22.2446 0.395088 23.1984 1.09835 23.9017C1.80161 24.6049 2.75544 25 3.75 25H21.25C22.2446 25 23.1984 24.6049 23.9017 23.9017C24.6049 23.1984 25 22.2446 25 21.25V6.25C25 5.25544 24.6049 4.30161 23.9017 3.59835C23.1984 2.89509 22.2446 2.5 21.25 2.5ZM22.5 21.25C22.5 21.5815 22.3683 21.8995 22.1339 22.1339C21.8995 22.3683 21.5815 22.5 21.25 22.5H3.75C3.41848 22.5 3.10054 22.3683 2.86612 22.1339C2.6317 21.8995 2.5 21.5815 2.5 21.25V10H22.5V21.25ZM22.5 7.5H2.5V6.25C2.5 5.91848 2.6317 5.60054 2.86612 5.36612C3.10054 5.1317 3.41848 5 3.75 5H21.25C21.5815 5 21.8995 5.1317 22.1339 5.36612C22.3683 5.60054 22.5 5.91848 22.5 6.25V7.5ZM6.25 20C6.49723 20 6.7389 19.9267 6.94446 19.7893C7.15002 19.652 7.31024 19.4568 7.40485 19.2284C7.49946 18.9999 7.52421 18.7486 7.47598 18.5061C7.42775 18.2637 7.3087 18.0409 7.13388 17.8661C6.95907 17.6913 6.73634 17.5722 6.49386 17.524C6.25139 17.4758 6.00005 17.5005 5.77165 17.5951C5.54324 17.6898 5.34801 17.85 5.21066 18.0555C5.07331 18.2611 5 18.5028 5 18.75C5 19.0815 5.1317 19.3995 5.36612 19.6339C5.60054 19.8683 5.91848 20 6.25 20Z" fill="url(#paint0_linear_674_2177)"/>
<defs>
<linearGradient id="paint0_linear_674_2177" x1="0.843749" y1="105.303" x2="75.4267" y2="84.6075" gradientUnits="userSpaceOnUse">
<stop stop-color="#F840D0"/>
<stop offset="0.453548" stop-color="#53DDFF"/>
<stop offset="1" stop-color="#53FA9C"/>
</linearGradient>
</defs>
</svg>
