<svg width="22" height="22" viewBox="0 0 22 22" fill="none" xmlns="http://www.w3.org/2000/svg">
<path id="Vector" fill-rule="evenodd" clip-rule="evenodd" d="M10.9375 0C8.03669 0 5.2547 1.15234 3.20352 3.20352C1.15234 5.2547 0 8.03669 0 10.9375C0 13.8383 1.15234 16.6203 3.20352 18.6715C5.2547 20.7227 8.03669 21.875 10.9375 21.875C13.8383 21.875 16.6203 20.7227 18.6715 18.6715C20.7227 16.6203 21.875 13.8383 21.875 10.9375C21.875 8.03669 20.7227 5.2547 18.6715 3.20352C16.6203 1.15234 13.8383 0 10.9375 0ZM9.6875 5.9375C9.6875 5.60598 9.8192 5.28804 10.0536 5.05362C10.288 4.8192 10.606 4.6875 10.9375 4.6875C11.269 4.6875 11.587 4.8192 11.8214 5.05362C12.0558 5.28804 12.1875 5.60598 12.1875 5.9375V10.42L14.3212 12.5538C14.5489 12.7895 14.6749 13.1053 14.6721 13.433C14.6692 13.7607 14.5378 14.0743 14.306 14.306C14.0743 14.5378 13.7607 14.6692 13.433 14.6721C13.1053 14.6749 12.7895 14.5489 12.5538 14.3212L10.0538 11.8212C9.81931 11.5869 9.68757 11.269 9.6875 10.9375V5.9375Z" fill="black"/>
</svg>
