<svg width="25" height="23" viewBox="0 0 25 23" fill="none" xmlns="http://www.w3.org/2000/svg">
<g id="Vector">
<path d="M18.75 5L16.9875 6.7625L20.2125 10H7.5V12.5H20.2125L16.9875 15.725L18.75 17.5L25 11.25M2.5 2.5H12.5V0H2.5C1.125 0 0 1.125 0 2.5V20C0 21.375 1.125 22.5 2.5 22.5H12.5V20H2.5V2.5Z" fill="white"/>
<path d="M18.75 5L16.9875 6.7625L20.2125 10H7.5V12.5H20.2125L16.9875 15.725L18.75 17.5L25 11.25M2.5 2.5H12.5V0H2.5C1.125 0 0 1.125 0 2.5V20C0 21.375 1.125 22.5 2.5 22.5H12.5V20H2.5V2.5Z" fill="#010002" fill-opacity="0.7"/>
</g>
</svg>
