<svg width="23" height="26" viewBox="0 0 23 26" fill="none" xmlns="http://www.w3.org/2000/svg">
<g id="Vector">
<path fill-rule="evenodd" clip-rule="evenodd" d="M2.4227 9.57886C2.4227 7.03839 3.34458 4.60197 4.98552 2.80558C6.62646 1.0092 8.85206 0 11.1727 0C13.4933 0 15.7189 1.0092 17.3599 2.80558C19.0008 4.60197 19.9227 7.03839 19.9227 9.57886V14.7295L22.2002 19.716C22.305 19.9455 22.3546 20.2006 22.344 20.4569C22.3335 20.7133 22.2633 20.9624 22.14 21.1807C22.0168 21.399 21.8446 21.5791 21.6399 21.7041C21.4351 21.829 21.2046 21.8946 20.9702 21.8945H16.0152C15.7372 23.069 15.1107 24.1091 14.2343 24.8516C13.3578 25.5941 12.281 25.9969 11.1727 25.9969C10.0645 25.9969 8.98758 25.5941 8.11112 24.8516C7.23467 24.1091 6.60825 23.069 6.3302 21.8945H1.3752C1.1408 21.8946 0.91028 21.829 0.705537 21.7041C0.500794 21.5791 0.328626 21.399 0.205385 21.1807C0.0821438 20.9624 0.0119221 20.7133 0.00138911 20.4569C-0.00914392 20.2006 0.0403615 19.9455 0.145204 19.716L2.4227 14.7295V9.57886ZM9.0077 21.8945C9.22713 22.3105 9.54272 22.656 9.92276 22.8962C10.3028 23.1364 10.7339 23.2628 11.1727 23.2628C11.6115 23.2628 12.0426 23.1364 12.4226 22.8962C12.8027 22.656 13.1183 22.3105 13.3377 21.8945H9.0077ZM11.1727 2.73682C9.5151 2.73682 7.92539 3.45767 6.75329 4.7408C5.58118 6.02393 4.9227 7.76423 4.9227 9.57886V14.7295C4.92268 15.1542 4.83238 15.573 4.65895 15.9529L3.19645 19.1577H19.1502L17.6877 15.9529C17.5138 15.5732 17.4231 15.1543 17.4227 14.7295V9.57886C17.4227 7.76423 16.7642 6.02393 15.5921 4.7408C14.42 3.45767 12.8303 2.73682 11.1727 2.73682Z" fill="white"/>
<path fill-rule="evenodd" clip-rule="evenodd" d="M2.4227 9.57886C2.4227 7.03839 3.34458 4.60197 4.98552 2.80558C6.62646 1.0092 8.85206 0 11.1727 0C13.4933 0 15.7189 1.0092 17.3599 2.80558C19.0008 4.60197 19.9227 7.03839 19.9227 9.57886V14.7295L22.2002 19.716C22.305 19.9455 22.3546 20.2006 22.344 20.4569C22.3335 20.7133 22.2633 20.9624 22.14 21.1807C22.0168 21.399 21.8446 21.5791 21.6399 21.7041C21.4351 21.829 21.2046 21.8946 20.9702 21.8945H16.0152C15.7372 23.069 15.1107 24.1091 14.2343 24.8516C13.3578 25.5941 12.281 25.9969 11.1727 25.9969C10.0645 25.9969 8.98758 25.5941 8.11112 24.8516C7.23467 24.1091 6.60825 23.069 6.3302 21.8945H1.3752C1.1408 21.8946 0.91028 21.829 0.705537 21.7041C0.500794 21.5791 0.328626 21.399 0.205385 21.1807C0.0821438 20.9624 0.0119221 20.7133 0.00138911 20.4569C-0.00914392 20.2006 0.0403615 19.9455 0.145204 19.716L2.4227 14.7295V9.57886ZM9.0077 21.8945C9.22713 22.3105 9.54272 22.656 9.92276 22.8962C10.3028 23.1364 10.7339 23.2628 11.1727 23.2628C11.6115 23.2628 12.0426 23.1364 12.4226 22.8962C12.8027 22.656 13.1183 22.3105 13.3377 21.8945H9.0077ZM11.1727 2.73682C9.5151 2.73682 7.92539 3.45767 6.75329 4.7408C5.58118 6.02393 4.9227 7.76423 4.9227 9.57886V14.7295C4.92268 15.1542 4.83238 15.573 4.65895 15.9529L3.19645 19.1577H19.1502L17.6877 15.9529C17.5138 15.5732 17.4231 15.1543 17.4227 14.7295V9.57886C17.4227 7.76423 16.7642 6.02393 15.5921 4.7408C14.42 3.45767 12.8303 2.73682 11.1727 2.73682Z" fill="#010002"/>
</g>
</svg>
